<mxfile host="www.draw.io" modified="2019-10-23T06:00:21.152Z" agent="Mozilla/5.0 (Macintosh; Intel Mac OS X 10.14; rv:69.0) Gecko/20100101 Firefox/69.0" etag="NMaGYPsdolh1NUvgsWAZ" version="12.1.2" type="github" pages="1">
  <diagram id="g8cGF7IXPuXk7aT_YaH4" name="第 1 页">
    <mxGraphModel dx="946" dy="628" grid="1" gridSize="10" guides="1" tooltips="1" connect="1" arrows="1" fold="1" page="1" pageScale="1" pageWidth="850" pageHeight="1100" math="0" shadow="0">
      <root>
        <mxCell id="0"/>
        <mxCell id="1" parent="0"/>
        <mxCell id="Z23GgMfpb7zIVQ6tVPn3-1" value="note" style="rounded=1;whiteSpace=wrap;html=1;" vertex="1" parent="1">
          <mxGeometry x="300" y="90" width="120" height="60" as="geometry"/>
        </mxCell>
        <mxCell id="Z23GgMfpb7zIVQ6tVPn3-5" style="edgeStyle=orthogonalEdgeStyle;rounded=0;orthogonalLoop=1;jettySize=auto;html=1;entryX=0;entryY=0.5;entryDx=0;entryDy=0;exitX=0.5;exitY=0;exitDx=0;exitDy=0;" edge="1" parent="1" source="Z23GgMfpb7zIVQ6tVPn3-2" target="Z23GgMfpb7zIVQ6tVPn3-1">
          <mxGeometry relative="1" as="geometry"/>
        </mxCell>
        <mxCell id="Z23GgMfpb7zIVQ6tVPn3-18" value="一级评论" style="text;html=1;resizable=0;points=[];align=center;verticalAlign=middle;labelBackgroundColor=#ffffff;" vertex="1" connectable="0" parent="Z23GgMfpb7zIVQ6tVPn3-5">
          <mxGeometry x="-0.3647" y="-1" relative="1" as="geometry">
            <mxPoint as="offset"/>
          </mxGeometry>
        </mxCell>
        <mxCell id="Z23GgMfpb7zIVQ6tVPn3-2" value="comment" style="rounded=1;whiteSpace=wrap;html=1;" vertex="1" parent="1">
          <mxGeometry x="160" y="210" width="120" height="60" as="geometry"/>
        </mxCell>
        <mxCell id="Z23GgMfpb7zIVQ6tVPn3-7" style="edgeStyle=orthogonalEdgeStyle;rounded=0;orthogonalLoop=1;jettySize=auto;html=1;entryX=1;entryY=0.5;entryDx=0;entryDy=0;exitX=0.5;exitY=0;exitDx=0;exitDy=0;" edge="1" parent="1" source="Z23GgMfpb7zIVQ6tVPn3-3" target="Z23GgMfpb7zIVQ6tVPn3-1">
          <mxGeometry relative="1" as="geometry"/>
        </mxCell>
        <mxCell id="Z23GgMfpb7zIVQ6tVPn3-19" value="一级评论" style="text;html=1;resizable=0;points=[];align=center;verticalAlign=middle;labelBackgroundColor=#ffffff;" vertex="1" connectable="0" parent="Z23GgMfpb7zIVQ6tVPn3-7">
          <mxGeometry x="-0.5636" y="2" relative="1" as="geometry">
            <mxPoint as="offset"/>
          </mxGeometry>
        </mxCell>
        <mxCell id="Z23GgMfpb7zIVQ6tVPn3-3" value="comment" style="rounded=1;whiteSpace=wrap;html=1;" vertex="1" parent="1">
          <mxGeometry x="490" y="210" width="120" height="60" as="geometry"/>
        </mxCell>
        <mxCell id="Z23GgMfpb7zIVQ6tVPn3-13" style="edgeStyle=orthogonalEdgeStyle;rounded=0;orthogonalLoop=1;jettySize=auto;html=1;entryX=0;entryY=0.5;entryDx=0;entryDy=0;" edge="1" parent="1" source="Z23GgMfpb7zIVQ6tVPn3-9" target="Z23GgMfpb7zIVQ6tVPn3-2">
          <mxGeometry relative="1" as="geometry"/>
        </mxCell>
        <mxCell id="Z23GgMfpb7zIVQ6tVPn3-20" value="子评论" style="text;html=1;resizable=0;points=[];align=center;verticalAlign=middle;labelBackgroundColor=#ffffff;" vertex="1" connectable="0" parent="Z23GgMfpb7zIVQ6tVPn3-13">
          <mxGeometry x="-0.3733" y="-2" relative="1" as="geometry">
            <mxPoint as="offset"/>
          </mxGeometry>
        </mxCell>
        <mxCell id="Z23GgMfpb7zIVQ6tVPn3-9" value="sub_comment" style="rounded=1;whiteSpace=wrap;html=1;" vertex="1" parent="1">
          <mxGeometry x="60" y="350" width="120" height="60" as="geometry"/>
        </mxCell>
        <mxCell id="Z23GgMfpb7zIVQ6tVPn3-14" style="edgeStyle=orthogonalEdgeStyle;rounded=0;orthogonalLoop=1;jettySize=auto;html=1;entryX=1;entryY=0.5;entryDx=0;entryDy=0;" edge="1" parent="1" source="Z23GgMfpb7zIVQ6tVPn3-10" target="Z23GgMfpb7zIVQ6tVPn3-2">
          <mxGeometry relative="1" as="geometry"/>
        </mxCell>
        <mxCell id="Z23GgMfpb7zIVQ6tVPn3-10" value="sub_comment" style="rounded=1;whiteSpace=wrap;html=1;" vertex="1" parent="1">
          <mxGeometry x="260" y="350" width="120" height="60" as="geometry"/>
        </mxCell>
        <mxCell id="Z23GgMfpb7zIVQ6tVPn3-15" style="edgeStyle=orthogonalEdgeStyle;rounded=0;orthogonalLoop=1;jettySize=auto;html=1;entryX=0;entryY=0.5;entryDx=0;entryDy=0;" edge="1" parent="1" source="Z23GgMfpb7zIVQ6tVPn3-11" target="Z23GgMfpb7zIVQ6tVPn3-3">
          <mxGeometry relative="1" as="geometry"/>
        </mxCell>
        <mxCell id="Z23GgMfpb7zIVQ6tVPn3-22" value="子评论" style="text;html=1;resizable=0;points=[];align=center;verticalAlign=middle;labelBackgroundColor=#ffffff;" vertex="1" connectable="0" parent="Z23GgMfpb7zIVQ6tVPn3-15">
          <mxGeometry x="-0.2571" y="1" relative="1" as="geometry">
            <mxPoint as="offset"/>
          </mxGeometry>
        </mxCell>
        <mxCell id="Z23GgMfpb7zIVQ6tVPn3-11" value="sub_comment" style="rounded=1;whiteSpace=wrap;html=1;" vertex="1" parent="1">
          <mxGeometry x="400" y="350" width="120" height="60" as="geometry"/>
        </mxCell>
        <mxCell id="Z23GgMfpb7zIVQ6tVPn3-16" style="edgeStyle=orthogonalEdgeStyle;rounded=0;orthogonalLoop=1;jettySize=auto;html=1;entryX=1;entryY=0.5;entryDx=0;entryDy=0;" edge="1" parent="1" source="Z23GgMfpb7zIVQ6tVPn3-12" target="Z23GgMfpb7zIVQ6tVPn3-3">
          <mxGeometry relative="1" as="geometry"/>
        </mxCell>
        <mxCell id="Z23GgMfpb7zIVQ6tVPn3-24" value="子评论" style="text;html=1;resizable=0;points=[];align=center;verticalAlign=middle;labelBackgroundColor=#ffffff;" vertex="1" connectable="0" parent="Z23GgMfpb7zIVQ6tVPn3-16">
          <mxGeometry x="-0.4125" y="1" relative="1" as="geometry">
            <mxPoint as="offset"/>
          </mxGeometry>
        </mxCell>
        <mxCell id="Z23GgMfpb7zIVQ6tVPn3-12" value="sub_comment" style="rounded=1;whiteSpace=wrap;html=1;" vertex="1" parent="1">
          <mxGeometry x="600" y="350" width="120" height="60" as="geometry"/>
        </mxCell>
        <mxCell id="Z23GgMfpb7zIVQ6tVPn3-21" value="子评论" style="text;html=1;resizable=0;points=[];autosize=1;align=left;verticalAlign=top;spacingTop=-4;" vertex="1" parent="1">
          <mxGeometry x="310" y="290" width="50" height="20" as="geometry"/>
        </mxCell>
        <mxCell id="Z23GgMfpb7zIVQ6tVPn3-31" style="edgeStyle=orthogonalEdgeStyle;rounded=0;orthogonalLoop=1;jettySize=auto;html=1;entryX=0;entryY=0.5;entryDx=0;entryDy=0;" edge="1" parent="1" source="Z23GgMfpb7zIVQ6tVPn3-29" target="Z23GgMfpb7zIVQ6tVPn3-30">
          <mxGeometry relative="1" as="geometry"/>
        </mxCell>
        <mxCell id="Z23GgMfpb7zIVQ6tVPn3-32" value="&amp;lt;submit&amp;gt;" style="text;html=1;resizable=0;points=[];align=center;verticalAlign=middle;labelBackgroundColor=#ffffff;" vertex="1" connectable="0" parent="Z23GgMfpb7zIVQ6tVPn3-31">
          <mxGeometry x="-0.16" y="-2" relative="1" as="geometry">
            <mxPoint as="offset"/>
          </mxGeometry>
        </mxCell>
        <mxCell id="Z23GgMfpb7zIVQ6tVPn3-29" value="user" style="rounded=1;whiteSpace=wrap;html=1;" vertex="1" parent="1">
          <mxGeometry x="110" y="480" width="120" height="60" as="geometry"/>
        </mxCell>
        <mxCell id="Z23GgMfpb7zIVQ6tVPn3-37" style="edgeStyle=orthogonalEdgeStyle;rounded=0;orthogonalLoop=1;jettySize=auto;html=1;entryX=0;entryY=0.5;entryDx=0;entryDy=0;" edge="1" parent="1" source="Z23GgMfpb7zIVQ6tVPn3-30" target="Z23GgMfpb7zIVQ6tVPn3-35">
          <mxGeometry relative="1" as="geometry"/>
        </mxCell>
        <mxCell id="Z23GgMfpb7zIVQ6tVPn3-38" style="edgeStyle=orthogonalEdgeStyle;rounded=0;orthogonalLoop=1;jettySize=auto;html=1;entryX=0;entryY=0.5;entryDx=0;entryDy=0;" edge="1" parent="1" source="Z23GgMfpb7zIVQ6tVPn3-30" target="Z23GgMfpb7zIVQ6tVPn3-36">
          <mxGeometry relative="1" as="geometry"/>
        </mxCell>
        <mxCell id="Z23GgMfpb7zIVQ6tVPn3-40" style="edgeStyle=orthogonalEdgeStyle;rounded=0;orthogonalLoop=1;jettySize=auto;html=1;entryX=0;entryY=0.5;entryDx=0;entryDy=0;" edge="1" parent="1" source="Z23GgMfpb7zIVQ6tVPn3-30" target="Z23GgMfpb7zIVQ6tVPn3-39">
          <mxGeometry relative="1" as="geometry"/>
        </mxCell>
        <mxCell id="Z23GgMfpb7zIVQ6tVPn3-41" value="&amp;lt;for&amp;gt;" style="text;html=1;resizable=0;points=[];align=center;verticalAlign=middle;labelBackgroundColor=#ffffff;" vertex="1" connectable="0" parent="Z23GgMfpb7zIVQ6tVPn3-40">
          <mxGeometry x="-0.7412" y="-1" relative="1" as="geometry">
            <mxPoint as="offset"/>
          </mxGeometry>
        </mxCell>
        <mxCell id="Z23GgMfpb7zIVQ6tVPn3-30" value="comment" style="rounded=1;whiteSpace=wrap;html=1;" vertex="1" parent="1">
          <mxGeometry x="335" y="480" width="120" height="60" as="geometry"/>
        </mxCell>
        <mxCell id="Z23GgMfpb7zIVQ6tVPn3-35" value="note" style="rounded=1;whiteSpace=wrap;html=1;" vertex="1" parent="1">
          <mxGeometry x="610" y="480" width="120" height="60" as="geometry"/>
        </mxCell>
        <mxCell id="Z23GgMfpb7zIVQ6tVPn3-36" value="comment" style="rounded=1;whiteSpace=wrap;html=1;" vertex="1" parent="1">
          <mxGeometry x="610" y="590" width="120" height="60" as="geometry"/>
        </mxCell>
        <mxCell id="Z23GgMfpb7zIVQ6tVPn3-39" value="goods" style="rounded=1;whiteSpace=wrap;html=1;" vertex="1" parent="1">
          <mxGeometry x="610" y="700" width="120" height="60" as="geometry"/>
        </mxCell>
      </root>
    </mxGraphModel>
  </diagram>
</mxfile>
